<svg width="43" height="46" viewBox="0 0 43 46" fill="none" xmlns="http://www.w3.org/2000/svg">
<path d="M12.3122 5.72829C12.3093 5.72975 12.306 5.73051 12.3028 5.73051C12.2995 5.73051 12.2963 5.72975 12.2933 5.72829L6.74604 2.90164C6.74251 2.8999 6.73864 2.89917 6.73479 2.8995C6.73094 2.89983 6.72722 2.90121 6.72397 2.90352C6.72073 2.90583 6.71805 2.90899 6.71619 2.91273C6.71433 2.91647 6.71334 2.92065 6.71331 2.92492L6.71476 6.09356C6.71476 6.10038 6.71721 6.10691 6.72158 6.11173C6.72595 6.11655 6.73187 6.11925 6.73804 6.11925H36.4603C36.4665 6.11925 36.4724 6.11655 36.4768 6.11173C36.4812 6.10691 36.4836 6.10038 36.4836 6.09356L36.4843 2.93214C36.4843 2.92788 36.4833 2.92369 36.4815 2.91995C36.4796 2.91622 36.4769 2.91305 36.4737 2.91074C36.4704 2.90843 36.4667 2.90705 36.4628 2.90672C36.459 2.90639 36.4551 2.90713 36.4516 2.90886L30.9116 5.73471C30.9086 5.73617 30.9054 5.73693 30.9021 5.73693C30.8989 5.73693 30.8956 5.73617 30.8927 5.73471L21.5948 1.00222C21.5918 1.00075 21.5886 1 21.5854 1C21.5821 1 21.5789 1.00075 21.5759 1.00222L12.3122 5.72829Z" stroke="#292E33"/>
<path d="M34.4832 11.9337L37.998 18.617C38.0016 18.6237 38.0032 18.6315 38.0024 18.6393C38.0016 18.6471 37.9985 18.6545 37.9937 18.6603L30.3456 28.0595C30.3291 28.0798 30.3209 28.1042 30.3209 28.1326L30.3165 33.9544C30.3165 33.9855 30.3257 33.9892 30.3442 33.9657L42.156 19.0344C42.1676 19.0197 42.1748 19.0014 42.1765 18.9819C42.1782 18.9625 42.1743 18.9429 42.1654 18.9261L36.4879 8.07302C36.4782 8.05429 36.4634 8.04492 36.4436 8.04492H6.75472C6.72853 8.04492 6.70889 8.0575 6.6958 8.08265L1.00958 18.9397C0.994543 18.9691 0.997209 18.9967 1.01758 19.0224L12.8614 33.9705C12.8735 33.9855 12.8796 33.9831 12.8796 33.9633V28.139C12.8796 28.1142 12.8713 28.0902 12.8563 28.0715L5.20532 18.6692C5.19174 18.6526 5.19005 18.6346 5.20023 18.6154L8.69547 11.9369C8.70857 11.9117 8.72845 11.8992 8.75512 11.8992H34.4293C34.4531 11.8992 34.471 11.9107 34.4832 11.9337Z" stroke="#292E33"/>
<path d="M33.1003 13.847C33.1003 13.8415 33.0983 13.8362 33.0948 13.8323C33.0912 13.8284 33.0864 13.8262 33.0814 13.8262H10.0979C10.0929 13.8262 10.0881 13.8284 10.0846 13.8323C10.081 13.8362 10.079 13.8415 10.079 13.847V17.6587C10.079 17.6643 10.081 17.6696 10.0846 17.6735C10.0881 17.6774 10.0929 17.6796 10.0979 17.6796H33.0814C33.0864 17.6796 33.0912 17.6774 33.0948 17.6735C33.0983 17.6696 33.1003 17.6643 33.1003 17.6587V13.847Z" stroke="#292E33"/>
<path d="M25.0456 23.4403C25.0699 23.4403 25.082 23.4534 25.082 23.4797V40.6788C25.082 40.705 25.09 40.7085 25.106 40.6892L28.4929 36.5227C28.5453 36.4581 28.5743 36.3743 28.5743 36.2875L28.5729 23.4981C28.5729 23.49 28.5743 23.482 28.5771 23.4746C28.58 23.4671 28.5841 23.4604 28.5893 23.4547C28.5945 23.449 28.6007 23.4445 28.6075 23.4415C28.6143 23.4385 28.6216 23.437 28.6289 23.4371L30.2016 23.4427C30.2467 23.4427 30.2692 23.4181 30.2692 23.3689L30.2634 19.6246C30.2634 19.5979 30.2513 19.5845 30.227 19.5845L12.9523 19.5853C12.9281 19.5853 12.9159 19.5989 12.9159 19.6262V23.3841C12.9159 23.4162 12.9305 23.4326 12.9596 23.4331C13.4828 23.4475 14.0255 23.4457 14.5875 23.4275C14.6128 23.4264 14.6254 23.4398 14.6254 23.4676V36.3268C14.6254 36.3914 14.6469 36.4537 14.6857 36.5019L18.0631 40.6764C18.0869 40.7058 18.0988 40.701 18.0988 40.662V23.478C18.0988 23.4508 18.1114 23.4371 18.1366 23.4371L19.8082 23.4395C19.8325 23.4395 19.8446 23.4529 19.8446 23.4797L19.8439 42.8263C19.8438 42.8531 19.8529 42.8789 19.8693 42.8986L21.5627 44.9842C21.5797 45.0051 21.5969 45.0051 21.6144 44.9842L23.2911 42.921C23.3206 42.8854 23.3369 42.8387 23.3369 42.7902L23.3355 23.4829C23.3355 23.4534 23.3488 23.4387 23.3755 23.4387L25.0456 23.4403Z" stroke="#292E33"/>
<path d="M12.312 5.72829L21.5757 1.00222C21.5787 1.00075 21.5819 1 21.5851 1C21.5884 1 21.5916 1.00075 21.5946 1.00222L30.8925 5.73471C30.8954 5.73618 30.8986 5.73693 30.9019 5.73693C30.9052 5.73693 30.9084 5.73618 30.9114 5.73471L36.4514 2.90886C36.4549 2.90713 36.4588 2.90639 36.4626 2.90672C36.4665 2.90705 36.4702 2.90843 36.4734 2.91074C36.4767 2.91305 36.4794 2.91622 36.4812 2.91995C36.4831 2.92369 36.4841 2.92788 36.4841 2.93214L36.4834 6.09356C36.4834 6.10038 36.4809 6.10691 36.4766 6.11173C36.4722 6.11655 36.4663 6.11925 36.4601 6.11925H6.73782C6.73165 6.11925 6.72572 6.11655 6.72136 6.11173C6.71699 6.10691 6.71454 6.10038 6.71454 6.09356L6.71309 2.92492C6.71312 2.92065 6.71411 2.91647 6.71597 2.91273C6.71783 2.90899 6.72051 2.90583 6.72375 2.90352C6.727 2.90121 6.73072 2.89983 6.73457 2.8995C6.73842 2.89917 6.74229 2.8999 6.74582 2.90164L12.2931 5.72829C12.2961 5.72975 12.2993 5.73051 12.3026 5.73051C12.3058 5.73051 12.309 5.72975 12.312 5.72829Z" fill="#3F6C99"/>
<path d="M34.4293 11.8992H8.75512C8.72845 11.8992 8.70857 11.9117 8.69547 11.9369L5.20023 18.6154C5.19004 18.6346 5.19174 18.6526 5.20532 18.6692L12.8563 28.0715C12.8713 28.0902 12.8796 28.1142 12.8796 28.139V33.9633C12.8796 33.9831 12.8735 33.9855 12.8614 33.9705L1.01758 19.0224C0.997209 18.9967 0.994543 18.9691 1.00958 18.9397L6.6958 8.08265C6.70889 8.0575 6.72853 8.04492 6.75472 8.04492H36.4436C36.4634 8.04492 36.4782 8.05429 36.4879 8.07302L42.1654 18.9261C42.1743 18.9429 42.1782 18.9625 42.1765 18.9819C42.1748 19.0014 42.1676 19.0197 42.156 19.0344L30.3442 33.9657C30.3257 33.9892 30.3165 33.9855 30.3165 33.9544L30.3209 28.1326C30.3209 28.1042 30.3291 28.0798 30.3456 28.0595L37.9937 18.6603C37.9985 18.6545 38.0016 18.6471 38.0024 18.6393C38.0032 18.6315 38.0016 18.6237 37.998 18.617L34.4832 11.9337C34.471 11.9107 34.4531 11.8992 34.4293 11.8992Z" fill="#3F6C99"/>
<path d="M33.0814 13.8262H10.0979C10.0875 13.8262 10.079 13.8355 10.079 13.847V17.6587C10.079 17.6703 10.0875 17.6796 10.0979 17.6796H33.0814C33.0919 17.6796 33.1003 17.6703 33.1003 17.6587V13.847C33.1003 13.8355 33.0919 13.8262 33.0814 13.8262Z" fill="#3F6C99"/>
<path d="M25.0456 23.4403L23.3755 23.4387C23.3488 23.4387 23.3355 23.4534 23.3355 23.4829L23.3369 42.7902C23.3369 42.8387 23.3206 42.8854 23.2911 42.921L21.6144 44.9842C21.5969 45.0051 21.5797 45.0051 21.5627 44.9842L19.8693 42.8986C19.8529 42.8789 19.8438 42.8531 19.8439 42.8263L19.8446 23.4797C19.8446 23.4529 19.8325 23.4395 19.8082 23.4395L18.1366 23.4371C18.1114 23.4371 18.0988 23.4508 18.0988 23.478V40.662C18.0988 40.701 18.0869 40.7058 18.0631 40.6764L14.6857 36.5019C14.6469 36.4537 14.6254 36.3914 14.6254 36.3268V23.4676C14.6254 23.4398 14.6128 23.4264 14.5875 23.4275C14.0255 23.4457 13.4828 23.4475 12.9596 23.4331C12.9305 23.4326 12.9159 23.4162 12.9159 23.3841V19.6262C12.9159 19.5989 12.9281 19.5853 12.9523 19.5853L30.227 19.5845C30.2513 19.5845 30.2634 19.5979 30.2634 19.6246L30.2692 23.3689C30.2692 23.4181 30.2467 23.4427 30.2016 23.4427L28.6289 23.4371C28.6216 23.437 28.6143 23.4385 28.6075 23.4415C28.6007 23.4445 28.5945 23.449 28.5893 23.4547C28.5841 23.4604 28.58 23.4671 28.5771 23.4746C28.5743 23.482 28.5729 23.49 28.5729 23.4981L28.5743 36.2875C28.5743 36.3743 28.5453 36.4581 28.4929 36.5227L25.106 40.6892C25.09 40.7085 25.082 40.705 25.082 40.6788V23.4797C25.082 23.4534 25.0699 23.4403 25.0456 23.4403Z" fill="#3F6C99"/>
</svg>
