<svg width="165" height="46" viewBox="0 0 165 46" fill="none" xmlns="http://www.w3.org/2000/svg">
<path d="M68.8213 11.25L64.8838 34H60.6963L64.6494 11.25H68.8213ZM75.6806 11.25L75.0869 14.6406H57.29L57.8838 11.25H75.6806ZM79.3994 20.75L77.1025 34H73.0713L76.0088 17.0938H79.8213L79.3994 20.75ZM84.915 16.9531L84.4306 20.8125C84.1911 20.7708 83.9463 20.7344 83.6963 20.7031C83.4463 20.6719 83.1963 20.6562 82.9463 20.6562C82.3213 20.6458 81.7588 20.7292 81.2588 20.9062C80.7692 21.0729 80.3369 21.3229 79.9619 21.6562C79.5869 21.9896 79.2744 22.3958 79.0244 22.875C78.7744 23.3438 78.5817 23.8698 78.4463 24.4531L77.5713 24.3438C77.6754 23.5312 77.8525 22.6823 78.1025 21.7969C78.3525 20.901 78.7015 20.0677 79.1494 19.2969C79.5973 18.526 80.1702 17.9062 80.8681 17.4375C81.5765 16.9583 82.4306 16.724 83.4306 16.7344C83.6806 16.7344 83.9254 16.7552 84.165 16.7969C84.415 16.8385 84.665 16.8906 84.915 16.9531ZM91.7119 34.3125C90.5556 34.2917 89.5244 34.0677 88.6181 33.6406C87.7119 33.2135 86.9567 32.6302 86.3525 31.8906C85.7483 31.151 85.3056 30.2917 85.0244 29.3125C84.7536 28.3333 84.6598 27.2865 84.7431 26.1719L84.8056 25.5312C84.9202 24.375 85.1963 23.2708 85.6338 22.2188C86.0817 21.1562 86.6754 20.2135 87.415 19.3906C88.165 18.5573 89.0452 17.9062 90.0556 17.4375C91.0765 16.9688 92.2067 16.75 93.4463 16.7812C94.6233 16.8021 95.6233 17.0469 96.4463 17.5156C97.2692 17.974 97.9254 18.5938 98.415 19.375C98.915 20.1458 99.2536 21.0208 99.4306 22C99.6077 22.9792 99.639 24 99.5244 25.0625L99.29 26.7969H86.415L86.8681 23.9531L95.665 23.9688L95.7275 23.6094C95.8213 22.9948 95.79 22.4167 95.6338 21.875C95.4879 21.3333 95.2119 20.8958 94.8056 20.5625C94.4098 20.2188 93.8733 20.0365 93.1963 20.0156C92.4463 19.9948 91.8108 20.1562 91.29 20.5C90.7692 20.8333 90.3369 21.276 89.9931 21.8281C89.6598 22.3802 89.3994 22.9844 89.2119 23.6406C89.0244 24.2865 88.8942 24.9167 88.8213 25.5312L88.7588 26.1562C88.7067 26.7396 88.7223 27.3177 88.8056 27.8906C88.8994 28.4635 89.0713 28.9844 89.3213 29.4531C89.5817 29.9219 89.9411 30.3021 90.3994 30.5938C90.8577 30.8854 91.4254 31.0417 92.1025 31.0625C92.9567 31.0833 93.7379 30.9115 94.4463 30.5469C95.165 30.1719 95.8161 29.6823 96.3994 29.0781L98.29 31.2188C97.8108 31.9271 97.2171 32.5156 96.5088 32.9844C95.8004 33.4427 95.0296 33.7812 94.1963 34C93.3733 34.2188 92.5452 34.3229 91.7119 34.3125ZM110.384 30.4062L111.618 22.5469C111.681 22.0469 111.649 21.5938 111.524 21.1875C111.41 20.7708 111.191 20.4375 110.868 20.1875C110.545 19.9375 110.108 19.8073 109.556 19.7969C109.066 19.7865 108.613 19.8698 108.196 20.0469C107.79 20.224 107.446 20.4792 107.165 20.8125C106.884 21.1458 106.691 21.5521 106.587 22.0312L102.556 22.0625C102.618 21.1458 102.884 20.3542 103.353 19.6875C103.821 19.0104 104.415 18.4583 105.134 18.0312C105.853 17.5938 106.634 17.2708 107.478 17.0625C108.321 16.8542 109.149 16.7604 109.962 16.7812C111.118 16.8021 112.149 17.0469 113.056 17.5156C113.962 17.9844 114.655 18.651 115.134 19.5156C115.613 20.3698 115.79 21.4115 115.665 22.6406L114.462 30.0156C114.368 30.6198 114.3 31.2448 114.259 31.8906C114.217 32.526 114.3 33.1354 114.509 33.7188L114.493 34L110.509 34.0156C110.332 33.4323 110.243 32.8333 110.243 32.2188C110.254 31.6042 110.3 31 110.384 30.4062ZM112.087 23.7031L111.681 26.1562L109.353 26.1406C108.873 26.1406 108.389 26.1927 107.899 26.2969C107.42 26.401 106.972 26.5677 106.556 26.7969C106.139 27.0156 105.79 27.3125 105.509 27.6875C105.228 28.0625 105.056 28.5208 104.993 29.0625C104.941 29.4792 104.988 29.8438 105.134 30.1562C105.28 30.4688 105.498 30.7188 105.79 30.9062C106.092 31.0833 106.451 31.1771 106.868 31.1875C107.441 31.1979 108.004 31.0885 108.556 30.8594C109.108 30.6198 109.587 30.2865 109.993 29.8594C110.41 29.4323 110.696 28.9375 110.853 28.375L111.806 30.1875C111.576 30.8021 111.264 31.3646 110.868 31.875C110.472 32.3854 110.014 32.8281 109.493 33.2031C108.972 33.5677 108.405 33.849 107.79 34.0469C107.186 34.2552 106.55 34.3542 105.884 34.3438C104.946 34.3229 104.087 34.1042 103.306 33.6875C102.535 33.2708 101.925 32.6927 101.478 31.9531C101.03 31.2135 100.826 30.3594 100.868 29.3906C100.92 28.2865 101.196 27.3698 101.696 26.6406C102.207 25.901 102.863 25.3177 103.665 24.8906C104.467 24.4635 105.342 24.1562 106.29 23.9688C107.248 23.7812 108.191 23.6875 109.118 23.6875L112.087 23.7031ZM127.306 29.2812C127.389 28.75 127.264 28.3385 126.931 28.0469C126.597 27.7448 126.181 27.5156 125.681 27.3594C125.191 27.2031 124.754 27.0781 124.368 26.9844C123.743 26.8177 123.113 26.6094 122.478 26.3594C121.853 26.1094 121.28 25.7969 120.759 25.4219C120.248 25.0365 119.842 24.5677 119.54 24.0156C119.238 23.4635 119.103 22.8073 119.134 22.0469C119.175 21.151 119.405 20.375 119.821 19.7188C120.248 19.0521 120.795 18.5 121.462 18.0625C122.139 17.625 122.879 17.2969 123.681 17.0781C124.483 16.8594 125.285 16.7604 126.087 16.7812C127.191 16.7917 128.212 17 129.149 17.4062C130.097 17.8125 130.858 18.4167 131.431 19.2188C132.014 20.0208 132.3 21.0104 132.29 22.1875L128.29 22.1719C128.311 21.6823 128.228 21.2552 128.04 20.8906C127.863 20.526 127.597 20.25 127.243 20.0625C126.889 19.8646 126.451 19.7604 125.931 19.75C125.493 19.75 125.061 19.8281 124.634 19.9844C124.217 20.1406 123.858 20.375 123.556 20.6875C123.254 21 123.066 21.3906 122.993 21.8594C122.931 22.2344 122.983 22.5469 123.149 22.7969C123.326 23.0365 123.561 23.2292 123.853 23.375C124.155 23.5208 124.472 23.6406 124.806 23.7344C125.139 23.8281 125.441 23.9062 125.712 23.9688C126.608 24.1979 127.488 24.5 128.353 24.875C129.217 25.25 129.92 25.7708 130.462 26.4375C131.014 27.1042 131.269 27.9844 131.228 29.0781C131.186 30.0052 130.936 30.8073 130.478 31.4844C130.019 32.151 129.431 32.6979 128.712 33.125C128.004 33.5417 127.228 33.8438 126.384 34.0312C125.55 34.2292 124.733 34.3229 123.931 34.3125C122.806 34.2917 121.748 34.0625 120.759 33.625C119.78 33.1875 118.988 32.5521 118.384 31.7188C117.78 30.8854 117.478 29.8646 117.478 28.6562L121.306 28.6719C121.316 29.2448 121.431 29.7292 121.649 30.125C121.879 30.5208 122.201 30.8229 122.618 31.0312C123.045 31.2292 123.54 31.3281 124.103 31.3281C124.561 31.3385 125.019 31.2812 125.478 31.1562C125.936 31.0208 126.332 30.8021 126.665 30.5C126.998 30.1875 127.212 29.7812 127.306 29.2812ZM139.649 20.75L137.353 34H133.321L136.259 17.0938H140.071L139.649 20.75ZM145.165 16.9531L144.681 20.8125C144.441 20.7708 144.196 20.7344 143.946 20.7031C143.696 20.6719 143.446 20.6562 143.196 20.6562C142.571 20.6458 142.009 20.7292 141.509 20.9062C141.019 21.0729 140.587 21.3229 140.212 21.6562C139.837 21.9896 139.524 22.3958 139.274 22.875C139.024 23.3438 138.832 23.8698 138.696 24.4531L137.821 24.3438C137.925 23.5312 138.103 22.6823 138.353 21.7969C138.603 20.901 138.951 20.0677 139.399 19.2969C139.847 18.526 140.42 17.9062 141.118 17.4375C141.826 16.9583 142.681 16.724 143.681 16.7344C143.931 16.7344 144.175 16.7552 144.415 16.7969C144.665 16.8385 144.915 16.8906 145.165 16.9531ZM153.056 11.25L149.853 27.1719H146.446L148.774 11.25H153.056ZM145.04 32.1406C145.04 31.4844 145.259 30.9479 145.696 30.5312C146.144 30.1042 146.691 29.8854 147.337 29.875C147.951 29.8646 148.478 30.0625 148.915 30.4688C149.363 30.8646 149.592 31.375 149.603 32C149.603 32.6458 149.379 33.1823 148.931 33.6094C148.493 34.0365 147.957 34.25 147.321 34.25C146.696 34.2604 146.165 34.0729 145.728 33.6875C145.29 33.2917 145.061 32.776 145.04 32.1406Z" fill="#292E33"/>
<path d="M12.3123 5.72829C12.3093 5.72975 12.3061 5.73051 12.3029 5.73051C12.2996 5.73051 12.2964 5.72975 12.2934 5.72829L6.74611 2.90164C6.74258 2.8999 6.73872 2.89917 6.73486 2.8995C6.73101 2.89983 6.72729 2.90121 6.72405 2.90352C6.7208 2.90583 6.71812 2.90899 6.71626 2.91273C6.7144 2.91647 6.71341 2.92065 6.71338 2.92492L6.71483 6.09356C6.71483 6.10038 6.71728 6.10691 6.72165 6.11173C6.72602 6.11655 6.73194 6.11925 6.73811 6.11925H36.4604C36.4666 6.11925 36.4725 6.11655 36.4769 6.11173C36.4812 6.10691 36.4837 6.10038 36.4837 6.09356L36.4844 2.93214C36.4844 2.92788 36.4834 2.92369 36.4815 2.91995C36.4797 2.91622 36.477 2.91305 36.4737 2.91074C36.4705 2.90843 36.4668 2.90705 36.4629 2.90672C36.4591 2.90639 36.4552 2.90713 36.4517 2.90886L30.9117 5.73471C30.9087 5.73617 30.9055 5.73693 30.9022 5.73693C30.8989 5.73693 30.8957 5.73617 30.8927 5.73471L21.5949 1.00222C21.5919 1.00075 21.5887 1 21.5854 1C21.5822 1 21.579 1.00075 21.576 1.00222L12.3123 5.72829Z" stroke="#292E33"/>
<path d="M34.4832 11.9337L37.998 18.617C38.0016 18.6237 38.0032 18.6315 38.0024 18.6393C38.0016 18.6471 37.9985 18.6545 37.9937 18.6603L30.3456 28.0595C30.3291 28.0798 30.3209 28.1042 30.3209 28.1326L30.3165 33.9544C30.3165 33.9855 30.3257 33.9892 30.3442 33.9657L42.156 19.0344C42.1676 19.0197 42.1748 19.0014 42.1765 18.9819C42.1782 18.9625 42.1743 18.9429 42.1654 18.9261L36.4879 8.07302C36.4782 8.05429 36.4634 8.04492 36.4436 8.04492H6.75472C6.72853 8.04492 6.70889 8.0575 6.6958 8.08265L1.00958 18.9397C0.994543 18.9691 0.997209 18.9967 1.01758 19.0224L12.8614 33.9705C12.8735 33.9855 12.8796 33.9831 12.8796 33.9633V28.139C12.8796 28.1142 12.8713 28.0902 12.8563 28.0715L5.20532 18.6692C5.19174 18.6526 5.19005 18.6346 5.20023 18.6154L8.69547 11.9369C8.70857 11.9117 8.72845 11.8992 8.75512 11.8992H34.4293C34.4531 11.8992 34.471 11.9107 34.4832 11.9337Z" stroke="#292E33"/>
<path d="M33.1004 13.847C33.1004 13.8415 33.0984 13.8362 33.0949 13.8323C33.0913 13.8284 33.0865 13.8262 33.0815 13.8262H10.098C10.093 13.8262 10.0882 13.8284 10.0846 13.8323C10.0811 13.8362 10.0791 13.8415 10.0791 13.847V17.6587C10.0791 17.6643 10.0811 17.6696 10.0846 17.6735C10.0882 17.6774 10.093 17.6796 10.098 17.6796H33.0815C33.0865 17.6796 33.0913 17.6774 33.0949 17.6735C33.0984 17.6696 33.1004 17.6643 33.1004 17.6587V13.847Z" stroke="#292E33"/>
<path d="M25.0457 23.4403C25.07 23.4403 25.0821 23.4534 25.0821 23.4797V40.6788C25.0821 40.705 25.0901 40.7085 25.1061 40.6892L28.4929 36.5227C28.5454 36.4581 28.5744 36.3743 28.5744 36.2875L28.573 23.4981C28.5729 23.49 28.5744 23.482 28.5772 23.4746C28.58 23.4671 28.5842 23.4604 28.5894 23.4547C28.5946 23.449 28.6008 23.4445 28.6076 23.4415C28.6144 23.4385 28.6216 23.437 28.629 23.4371L30.2016 23.4427C30.2467 23.4427 30.2693 23.4181 30.2693 23.3689L30.2635 19.6246C30.2635 19.5979 30.2513 19.5845 30.2271 19.5845L12.9524 19.5853C12.9281 19.5853 12.916 19.5989 12.916 19.6262V23.3841C12.916 23.4162 12.9306 23.4326 12.9597 23.4331C13.4829 23.4475 14.0256 23.4457 14.5876 23.4275C14.6128 23.4264 14.6254 23.4398 14.6254 23.4676V36.3268C14.6255 36.3914 14.6469 36.4537 14.6858 36.5019L18.0632 40.6764C18.087 40.7058 18.0989 40.701 18.0989 40.662V23.478C18.0989 23.4508 18.1115 23.4371 18.1367 23.4371L19.8083 23.4395C19.8325 23.4395 19.8447 23.4529 19.8447 23.4797L19.8439 42.8263C19.8439 42.8531 19.853 42.8789 19.8694 42.8986L21.5628 44.9842C21.5798 45.0051 21.597 45.0051 21.6145 44.9842L23.2912 42.921C23.3206 42.8854 23.337 42.8387 23.337 42.7902L23.3355 23.4829C23.3355 23.4534 23.3489 23.4387 23.3756 23.4387L25.0457 23.4403Z" stroke="#292E33"/>
<path d="M12.3118 5.72829L21.5755 1.00222C21.5785 1.00075 21.5817 1 21.5849 1C21.5882 1 21.5914 1.00075 21.5944 1.00222L30.8923 5.73471C30.8952 5.73618 30.8985 5.73693 30.9017 5.73693C30.905 5.73693 30.9082 5.73618 30.9112 5.73471L36.4512 2.90886C36.4547 2.90713 36.4586 2.90639 36.4624 2.90672C36.4663 2.90705 36.47 2.90843 36.4732 2.91074C36.4765 2.91305 36.4792 2.91622 36.481 2.91995C36.4829 2.92369 36.4839 2.92788 36.4839 2.93214L36.4832 6.09356C36.4832 6.10038 36.4807 6.10691 36.4764 6.11173C36.472 6.11655 36.4661 6.11925 36.4599 6.11925H6.73762C6.73145 6.11925 6.72553 6.11655 6.72116 6.11173C6.7168 6.10691 6.71434 6.10038 6.71434 6.09356L6.71289 2.92492C6.71292 2.92065 6.71391 2.91647 6.71577 2.91273C6.71763 2.90899 6.72031 2.90583 6.72356 2.90352C6.72681 2.90121 6.73052 2.89983 6.73437 2.8995C6.73823 2.89917 6.74209 2.8999 6.74562 2.90164L12.2929 5.72829C12.2959 5.72975 12.2991 5.73051 12.3024 5.73051C12.3056 5.73051 12.3088 5.72975 12.3118 5.72829Z" fill="#3F6C99"/>
<path d="M34.4293 11.8992H8.75512C8.72845 11.8992 8.70857 11.9117 8.69547 11.9369L5.20023 18.6154C5.19004 18.6346 5.19174 18.6526 5.20532 18.6692L12.8563 28.0715C12.8713 28.0902 12.8796 28.1142 12.8796 28.139V33.9633C12.8796 33.9831 12.8735 33.9855 12.8614 33.9705L1.01758 19.0224C0.997209 18.9967 0.994543 18.9691 1.00958 18.9397L6.6958 8.08265C6.70889 8.0575 6.72853 8.04492 6.75472 8.04492H36.4436C36.4634 8.04492 36.4782 8.05429 36.4879 8.07302L42.1654 18.9261C42.1743 18.9429 42.1782 18.9625 42.1765 18.9819C42.1748 19.0014 42.1676 19.0197 42.156 19.0344L30.3442 33.9657C30.3257 33.9892 30.3165 33.9855 30.3165 33.9544L30.3209 28.1326C30.3209 28.1042 30.3291 28.0798 30.3456 28.0595L37.9937 18.6603C37.9985 18.6545 38.0016 18.6471 38.0024 18.6393C38.0032 18.6315 38.0016 18.6237 37.998 18.617L34.4832 11.9337C34.471 11.9107 34.4531 11.8992 34.4293 11.8992Z" fill="#3F6C99"/>
<path d="M33.0815 13.8262H10.098C10.0876 13.8262 10.0791 13.8355 10.0791 13.847V17.6587C10.0791 17.6703 10.0876 17.6796 10.098 17.6796H33.0815C33.0919 17.6796 33.1004 17.6703 33.1004 17.6587V13.847C33.1004 13.8355 33.0919 13.8262 33.0815 13.8262Z" fill="#3F6C99"/>
<path d="M25.0457 23.4403L23.3756 23.4387C23.3489 23.4387 23.3355 23.4534 23.3355 23.4829L23.337 42.7902C23.337 42.8387 23.3206 42.8854 23.2912 42.921L21.6145 44.9842C21.597 45.0051 21.5798 45.0051 21.5628 44.9842L19.8694 42.8986C19.853 42.8789 19.8439 42.8531 19.8439 42.8263L19.8447 23.4797C19.8447 23.4529 19.8325 23.4395 19.8083 23.4395L18.1367 23.4371C18.1115 23.4371 18.0989 23.4508 18.0989 23.478V40.662C18.0989 40.701 18.087 40.7058 18.0632 40.6764L14.6858 36.5019C14.6469 36.4537 14.6255 36.3914 14.6254 36.3268V23.4676C14.6254 23.4398 14.6128 23.4264 14.5876 23.4275C14.0256 23.4457 13.4829 23.4475 12.9597 23.4331C12.9306 23.4326 12.916 23.4162 12.916 23.3841V19.6262C12.916 19.5989 12.9281 19.5853 12.9524 19.5853L30.2271 19.5845C30.2513 19.5845 30.2635 19.5979 30.2635 19.6246L30.2693 23.3689C30.2693 23.4181 30.2467 23.4427 30.2016 23.4427L28.629 23.4371C28.6216 23.437 28.6144 23.4385 28.6076 23.4415C28.6008 23.4445 28.5946 23.449 28.5894 23.4547C28.5842 23.4604 28.58 23.4671 28.5772 23.4746C28.5744 23.482 28.5729 23.49 28.573 23.4981L28.5744 36.2875C28.5744 36.3743 28.5454 36.4581 28.4929 36.5227L25.1061 40.6892C25.0901 40.7085 25.0821 40.705 25.0821 40.6788V23.4797C25.0821 23.4534 25.07 23.4403 25.0457 23.4403Z" fill="#3F6C99"/>
</svg>
